<mxfile host="Electron" agent="Mozilla/5.0 (Windows NT 10.0; Win64; x64) AppleWebKit/537.36 (KHTML, like Gecko) draw.io/28.0.6 Chrome/138.0.7204.100 Electron/37.2.3 Safari/537.36" version="28.0.6">
  <diagram id="game-architecture-v2" name="Arquitectura Detallada de Juego Real-Time">
    <mxGraphModel dx="1586" dy="773" grid="1" gridSize="10" guides="1" tooltips="1" connect="1" arrows="1" fold="1" page="1" pageScale="1" pageWidth="1654" pageHeight="1169" math="0" shadow="0">
      <root>
        <mxCell id="0" />
        <mxCell id="1" parent="0" />
        <mxCell id="player" value="&lt;img src=&quot;https://img.icons8.com/ios-filled/50/000000/user-male-circle.png&quot; width=&quot;40&quot; height=&quot;40&quot;&gt;&lt;br&gt;&lt;b&gt;Jugador&lt;/b&gt;&lt;br&gt;(Cliente Web)" style="shape=rectangle;whiteSpace=wrap;html=1;align=center;verticalAlign=top;fillColor=#f5f5f5;strokeColor=#666666;fontColor=#333333;" parent="1" vertex="1">
          <mxGeometry x="10" y="330" width="120" height="100" as="geometry" />
        </mxCell>
        <mxCell id="infra-layer" value="" style="rounded=1;whiteSpace=wrap;html=1;fillColor=#dae8fc;strokeColor=#6c8ebf;dashed=1;dashPattern=8 8;" parent="1" vertex="1">
          <mxGeometry x="170" y="20" width="1400" height="1140" as="geometry" />
        </mxCell>
        <mxCell id="edge-layer" value="&lt;b&gt;Capa de Entrada (Edge)&lt;/b&gt;" style="shape=rectangle;whiteSpace=wrap;html=1;align=center;fillColor=#e1d5e7;strokeColor=#9673a6;dashed=1;" parent="1" vertex="1">
          <mxGeometry x="220" y="80" width="360" height="420" as="geometry" />
        </mxCell>
        <mxCell id="api-gateway" value="&lt;img src=&quot;https://img.icons8.com/color/48/000000/nginx.png&quot; width=&quot;40&quot; height=&quot;40&quot;&gt;&lt;br&gt;&lt;b&gt;API Gateway / Edge LB&lt;/b&gt;&lt;br&gt;(Nginx)&lt;br&gt;- TLS Offload (Let&#39;s Encrypt)" style="shape=rectangle;whiteSpace=wrap;html=1;align=center;verticalAlign=top;fillColor=#d5e8d4;strokeColor=#82b366;" parent="1" vertex="1">
          <mxGeometry x="240" y="120" width="180" height="130" as="geometry" />
        </mxCell>
        <mxCell id="game-gateway" value="&lt;img src=&quot;https://img.icons8.com/ios-filled/50/000000/traffic-jam.png&quot; width=&quot;40&quot; height=&quot;40&quot;&gt;&lt;br&gt;&lt;b&gt;Game Gateway / Router&lt;/b&gt;&lt;br&gt;(Componente Custom Rust)&lt;br&gt;- Enruta Websockets/UDP&lt;br&gt;- Tabla de Sesiones (Redis)" style="shape=rectangle;whiteSpace=wrap;html=1;align=center;verticalAlign=top;fillColor=#d5e8d4;strokeColor=#82b366;" parent="1" vertex="1">
          <mxGeometry x="290" y="330" width="180" height="130" as="geometry" />
        </mxCell>
        <mxCell id="backend-layer" value="&lt;b&gt;Servicios de Backend (Node.js)&lt;/b&gt;" style="shape=rectangle;whiteSpace=wrap;html=1;align=center;fillColor=#f8cecc;strokeColor=#b85450;dashed=1;labelPosition=center;verticalLabelPosition=top;verticalAlign=bottom;spacingBottom=-21;" parent="1" vertex="1">
          <mxGeometry x="600" y="80" width="280" height="420" as="geometry" />
        </mxCell>
        <mxCell id="auth-service" value="&lt;img src=&quot;https://img.icons8.com/fluency/48/key-cloak.png&quot; width=&quot;40&quot; height=&quot;40&quot;&gt;&lt;br&gt;&lt;b&gt;Servicio de Autenticación&lt;/b&gt;&lt;br&gt;- OAuth2 (Google, Facebook)&lt;br&gt;- OTP para ops. sensibles" style="shape=rectangle;whiteSpace=wrap;html=1;align=center;verticalAlign=top;fillColor=#fff2cc;strokeColor=#d6b656;" parent="1" vertex="1">
          <mxGeometry x="620" y="105" width="240" height="130" as="geometry" />
        </mxCell>
        <mxCell id="matchmaking-service" value="&lt;img src=&quot;https://img.icons8.com/ios-filled/50/000000/puzzle.png&quot; width=&quot;40&quot; height=&quot;40&quot;&gt;&lt;br&gt;&lt;b&gt;Servicio de Matchmaking&lt;/b&gt;&lt;br&gt;- Lógica de emparejamiento&lt;br&gt;- Usa colas efímeras en Redis" style="shape=rectangle;whiteSpace=wrap;html=1;align=center;verticalAlign=top;fillColor=#fff2cc;strokeColor=#d6b656;" parent="1" vertex="1">
          <mxGeometry x="620" y="250" width="240" height="100" as="geometry" />
        </mxCell>
        <mxCell id="profile-service" value="&lt;img src=&quot;https://img.icons8.com/ios-filled/50/000000/conference-call.png&quot; width=&quot;40&quot; height=&quot;40&quot;&gt;&lt;br&gt;&lt;b&gt;Perfiles y Compras&lt;/b&gt;&lt;br&gt;- Gestión de perfiles&lt;br&gt;- Logros y Rankings&lt;br&gt;- Link a módulo de compras" style="shape=rectangle;whiteSpace=wrap;html=1;align=center;verticalAlign=top;fillColor=#fff2cc;strokeColor=#d6b656;" parent="1" vertex="1">
          <mxGeometry x="620" y="386" width="240" height="110" as="geometry" />
        </mxCell>
        <mxCell id="game-core-layer" value="&lt;b&gt;Core del Juego (Lógica Real-Time)&lt;/b&gt;" style="shape=rectangle;whiteSpace=wrap;html=1;align=center;fillColor=#f5f5f5;strokeColor=#666666;dashed=1;labelPosition=center;verticalLabelPosition=top;verticalAlign=bottom;spacingBottom=-18;labelBackgroundColor=default;labelBorderColor=default;fontColor=#333333;" parent="1" vertex="1">
          <mxGeometry x="220" y="520" width="660" height="220" as="geometry" />
        </mxCell>
        <mxCell id="game-server-1" value="&lt;img src=&quot;https://img.icons8.com/external-tal-revivo-light-tal-revivo/24/external-rust-is-a-multi-paradigm-system-programming-language-logo-light-tal-revivo.png&quot; width=&quot;40&quot; height=&quot;40&quot;&gt;&lt;br&gt;&lt;b&gt;Game Server 1&lt;/b&gt;&lt;br&gt;(Rust / Tokio)&lt;br&gt;- N partidas en memoria&lt;br&gt;- Lógica autoritativa" style="shape=rectangle;whiteSpace=wrap;html=1;align=center;verticalAlign=top;fillColor=#ffcc99;strokeColor=#d89945;" parent="1" vertex="1">
          <mxGeometry x="240" y="560" width="180" height="140" as="geometry" />
        </mxCell>
        <mxCell id="game-server-2" value="&lt;img src=&quot;https://img.icons8.com/external-tal-revivo-light-tal-revivo/24/external-rust-is-a-multi-paradigm-system-programming-language-logo-light-tal-revivo.png&quot; width=&quot;40&quot; height=&quot;40&quot;&gt;&lt;br&gt;&lt;b&gt;Game Server 2&lt;/b&gt;&lt;br&gt;(Rust / Tokio)&lt;br&gt;- N partidas en memoria&lt;br&gt;- Lógica autoritativa" style="shape=rectangle;whiteSpace=wrap;html=1;align=center;verticalAlign=top;fillColor=#ffcc99;strokeColor=#d89945;" parent="1" vertex="1">
          <mxGeometry x="460" y="560" width="180" height="140" as="geometry" />
        </mxCell>
        <mxCell id="jVAq8dYSXQLkJxcQNG5G-8" value="" style="edgeStyle=orthogonalEdgeStyle;rounded=0;orthogonalLoop=1;jettySize=auto;html=1;" edge="1" parent="1" source="game-server-n" target="game-server-2">
          <mxGeometry relative="1" as="geometry" />
        </mxCell>
        <mxCell id="game-server-n" value="&lt;img src=&quot;https://img.icons8.com/external-tal-revivo-light-tal-revivo/24/external-rust-is-a-multi-paradigm-system-programming-language-logo-light-tal-revivo.png&quot; width=&quot;40&quot; height=&quot;40&quot;&gt;&lt;br&gt;&lt;b&gt;Game Server N&lt;/b&gt;&lt;br&gt;(Escalado Horizontal)&lt;br&gt;- ... más instancias" style="shape=rectangle;whiteSpace=wrap;html=1;align=center;verticalAlign=top;fillColor=#ffcc99;strokeColor=#d89945;dashed=1;" parent="1" vertex="1">
          <mxGeometry x="680" y="560" width="180" height="140" as="geometry" />
        </mxCell>
        <mxCell id="data-layer" value="&lt;b&gt;Capa de Datos&lt;/b&gt;" style="shape=rectangle;whiteSpace=wrap;html=1;align=center;fillColor=#d5e8d4;strokeColor=#82b366;dashed=1;labelPosition=center;verticalLabelPosition=top;verticalAlign=bottom;spacingBottom=-21;" parent="1" vertex="1">
          <mxGeometry x="980" y="60" width="530" height="510" as="geometry" />
        </mxCell>
        <mxCell id="observability-layer" value="&lt;b&gt;Observabilidad y Monitoreo&lt;/b&gt;" style="shape=rectangle;whiteSpace=wrap;html=1;align=center;fillColor=#f5f5f5;strokeColor=#666666;dashed=1;labelPosition=center;verticalLabelPosition=top;verticalAlign=bottom;spacingBottom=-20;" parent="1" vertex="1">
          <mxGeometry x="460" y="790" width="590" height="330" as="geometry" />
        </mxCell>
        <mxCell id="prometheus" value="&lt;img src=&quot;https://img.icons8.com/color/48/prometheus-app.png&quot; width=&quot;40&quot; height=&quot;40&quot;&gt;&lt;br&gt;&lt;b&gt;Prometheus&lt;/b&gt;&lt;br&gt;Recolección de Métricas" style="shape=rectangle;whiteSpace=wrap;html=1;align=center;verticalAlign=top;fillColor=#ffcc99;strokeColor=#d89945;" parent="1" vertex="1">
          <mxGeometry x="500" y="820" width="150" height="100" as="geometry" />
        </mxCell>
        <mxCell id="grafana" value="&lt;img src=&quot;https://img.icons8.com/color/48/000000/grafana.png&quot; width=&quot;40&quot; height=&quot;40&quot;&gt;&lt;br&gt;&lt;b&gt;Grafana&lt;/b&gt;&lt;br&gt;Dashboards y Visualización" style="shape=rectangle;whiteSpace=wrap;html=1;align=center;verticalAlign=top;fillColor=#fff2cc;strokeColor=#d6b656;" parent="1" vertex="1">
          <mxGeometry x="695" y="870" width="150" height="100" as="geometry" />
        </mxCell>
        <mxCell id="loki" value="&lt;b&gt;Loki&lt;/b&gt;&lt;br&gt;Agregación de Logs" style="shape=rectangle;whiteSpace=wrap;html=1;align=center;verticalAlign=top;fillColor=#fff2cc;strokeColor=#d6b656;" parent="1" vertex="1">
          <mxGeometry x="870" y="990" width="150" height="100" as="geometry" />
        </mxCell>
        <mxCell id="opentelemetry" value="&lt;img src=&quot;https://opentelemetry.io/img/logos/opentelemetry-horizontal-color.svg&quot; width=&quot;40&quot; height=&quot;40&quot;&gt;&lt;br&gt;&lt;b&gt;OpenTelemetry&lt;/b&gt;&lt;br&gt;Traces Distribuidos" style="shape=rectangle;whiteSpace=wrap;html=1;align=center;verticalAlign=top;fillColor=#dae8fc;strokeColor=#6c8ebf;" parent="1" vertex="1">
          <mxGeometry x="870" y="820" width="150" height="100" as="geometry" />
        </mxCell>
        <mxCell id="conn-player-api" value="1. Login / API Calls (HTTPS)" style="edgeStyle=orthogonalEdgeStyle;rounded=0;orthogonalLoop=1;jettySize=auto;html=1;entryX=0;entryY=0.25;entryDx=0;entryDy=0;" parent="1" source="player" target="api-gateway" edge="1">
          <mxGeometry relative="1" as="geometry" />
        </mxCell>
        <mxCell id="conn-player-game" value="4. Conexión de Juego (WebSocket)" style="edgeStyle=orthogonalEdgeStyle;rounded=0;orthogonalLoop=1;jettySize=auto;html=1;entryX=0;entryY=0.5;entryDx=0;entryDy=0;" parent="1" source="player" target="game-gateway" edge="1">
          <mxGeometry relative="1" as="geometry">
            <mxPoint x="180" y="440" as="sourcePoint" />
          </mxGeometry>
        </mxCell>
        <mxCell id="conn-api-auth" value="2. Autenticación" style="edgeStyle=orthogonalEdgeStyle;rounded=0;orthogonalLoop=1;jettySize=auto;html=1;" parent="1" source="api-gateway" target="auth-service" edge="1">
          <mxGeometry relative="1" as="geometry" />
        </mxCell>
        <mxCell id="conn-api-match" value="3. Iniciar Matchmaking" style="edgeStyle=orthogonalEdgeStyle;rounded=0;orthogonalLoop=1;jettySize=auto;html=1;" parent="1" source="api-gateway" target="matchmaking-service" edge="1">
          <mxGeometry x="-0.2667" relative="1" as="geometry">
            <Array as="points">
              <mxPoint x="520" y="220" />
              <mxPoint x="520" y="320" />
            </Array>
            <mxPoint as="offset" />
          </mxGeometry>
        </mxCell>
        <mxCell id="conn-api-profile" value="API Calls" style="edgeStyle=orthogonalEdgeStyle;rounded=0;orthogonalLoop=1;jettySize=auto;html=1;" parent="1" source="api-gateway" target="profile-service" edge="1">
          <mxGeometry x="-0.596" relative="1" as="geometry">
            <Array as="points">
              <mxPoint x="610" y="150" />
              <mxPoint x="610" y="445" />
            </Array>
            <mxPoint as="offset" />
          </mxGeometry>
        </mxCell>
        <mxCell id="conn-auth-pg" value="R/W" style="edgeStyle=orthogonalEdgeStyle;rounded=0;orthogonalLoop=1;jettySize=auto;html=1;endArrow=classic;startArrow=classic;exitX=0.999;exitY=0.185;exitDx=0;exitDy=0;exitPerimeter=0;" parent="1" source="auth-service" target="jVAq8dYSXQLkJxcQNG5G-15" edge="1">
          <mxGeometry relative="1" as="geometry">
            <Array as="points">
              <mxPoint x="930" y="129" />
              <mxPoint x="930" y="90" />
              <mxPoint x="1405" y="90" />
            </Array>
          </mxGeometry>
        </mxCell>
        <mxCell id="conn-match-redis" value="R/W Colas" style="edgeStyle=orthogonalEdgeStyle;rounded=0;orthogonalLoop=1;jettySize=auto;html=1;endArrow=classic;startArrow=classic;entryX=0;entryY=0;entryDx=0;entryDy=70;entryPerimeter=0;" parent="1" source="matchmaking-service" target="jVAq8dYSXQLkJxcQNG5G-14" edge="1">
          <mxGeometry x="-0.2787" relative="1" as="geometry">
            <Array as="points">
              <mxPoint x="920" y="300" />
              <mxPoint x="920" y="175" />
            </Array>
            <mxPoint as="offset" />
          </mxGeometry>
        </mxCell>
        <mxCell id="conn-profile-pg" value="R/W Perfiles" style="edgeStyle=orthogonalEdgeStyle;rounded=0;orthogonalLoop=1;jettySize=auto;html=1;endArrow=classic;startArrow=classic;entryX=0;entryY=0;entryDx=0;entryDy=150;entryPerimeter=0;" parent="1" source="profile-service" target="jVAq8dYSXQLkJxcQNG5G-15" edge="1">
          <mxGeometry relative="1" as="geometry">
            <Array as="points">
              <mxPoint x="1220" y="470" />
              <mxPoint x="1220" y="470" />
            </Array>
          </mxGeometry>
        </mxCell>
        <mxCell id="conn-profile-redis" value="R/W Leaderboards" style="edgeStyle=orthogonalEdgeStyle;rounded=0;orthogonalLoop=1;jettySize=auto;html=1;endArrow=classic;startArrow=classic;entryX=0;entryY=0.5;entryDx=0;entryDy=0;entryPerimeter=0;" parent="1" source="profile-service" target="jVAq8dYSXQLkJxcQNG5G-14" edge="1">
          <mxGeometry x="-0.3139" relative="1" as="geometry">
            <mxPoint as="offset" />
          </mxGeometry>
        </mxCell>
        <mxCell id="conn-gamegw-gs" value="5. Enruta a Game Server" style="edgeStyle=orthogonalEdgeStyle;rounded=0;orthogonalLoop=1;jettySize=auto;html=1;" parent="1" source="game-gateway" target="game-server-1" edge="1">
          <mxGeometry relative="1" as="geometry">
            <mxPoint x="330" y="560" as="targetPoint" />
          </mxGeometry>
        </mxCell>
        <mxCell id="conn-gamegw-redis" value="Consulta Tabla de Sesiones" style="edgeStyle=orthogonalEdgeStyle;rounded=0;orthogonalLoop=1;jettySize=auto;html=1;dashed=1;entryX=0;entryY=0;entryDx=0;entryDy=150;entryPerimeter=0;" parent="1" source="game-gateway" target="jVAq8dYSXQLkJxcQNG5G-14" edge="1">
          <mxGeometry relative="1" as="geometry">
            <mxPoint x="450" y="240" as="sourcePoint" />
            <Array as="points">
              <mxPoint x="1000" y="380" />
              <mxPoint x="1000" y="255" />
            </Array>
          </mxGeometry>
        </mxCell>
        <mxCell id="conn-gs-redis" value="Pub/Sub, Estado Efímero" style="edgeStyle=orthogonalEdgeStyle;rounded=0;orthogonalLoop=1;jettySize=auto;html=1;endArrow=classic;startArrow=classic;exitX=0.75;exitY=0;exitDx=0;exitDy=0;entryX=0;entryY=1;entryDx=0;entryDy=-15;entryPerimeter=0;" parent="1" source="game-server-1" target="jVAq8dYSXQLkJxcQNG5G-14" edge="1">
          <mxGeometry relative="1" as="geometry">
            <mxPoint x="800" y="630" as="sourcePoint" />
            <Array as="points">
              <mxPoint x="375" y="540" />
              <mxPoint x="960" y="540" />
              <mxPoint x="960" y="510" />
              <mxPoint x="1040" y="510" />
            </Array>
          </mxGeometry>
        </mxCell>
        <mxCell id="conn-gs-pg" value="Actualiza estado persistente (fin de partida)" style="edgeStyle=orthogonalEdgeStyle;rounded=0;orthogonalLoop=1;jettySize=auto;html=1;dashed=1;exitX=0.75;exitY=1;exitDx=0;exitDy=0;entryX=0.5;entryY=1;entryDx=0;entryDy=0;entryPerimeter=0;" parent="1" source="game-server-1" target="jVAq8dYSXQLkJxcQNG5G-15" edge="1">
          <mxGeometry relative="1" as="geometry">
            <mxPoint x="800" y="630" as="sourcePoint" />
            <Array as="points">
              <mxPoint x="375" y="770" />
              <mxPoint x="1370" y="770" />
            </Array>
          </mxGeometry>
        </mxCell>
        <mxCell id="conn-gs2-redis" style="edgeStyle=orthogonalEdgeStyle;rounded=0;orthogonalLoop=1;jettySize=auto;html=1;endArrow=classic;startArrow=classic;entryX=0.145;entryY=1;entryDx=0;entryDy=-4.35;entryPerimeter=0;" parent="1" source="game-server-2" target="jVAq8dYSXQLkJxcQNG5G-14" edge="1">
          <mxGeometry relative="1" as="geometry">
            <Array as="points">
              <mxPoint x="650" y="630" />
              <mxPoint x="650" y="720" />
              <mxPoint x="1070" y="720" />
            </Array>
          </mxGeometry>
        </mxCell>
        <mxCell id="conn-gsn-redis" style="edgeStyle=orthogonalEdgeStyle;rounded=0;orthogonalLoop=1;jettySize=auto;html=1;endArrow=classic;startArrow=classic;entryX=0.5;entryY=1;entryDx=0;entryDy=0;entryPerimeter=0;" parent="1" source="game-server-n" target="jVAq8dYSXQLkJxcQNG5G-14" edge="1">
          <mxGeometry relative="1" as="geometry">
            <Array as="points">
              <mxPoint x="1145" y="590" />
            </Array>
          </mxGeometry>
        </mxCell>
        <mxCell id="conn-all-prometheus" value="Exporta Métricas" style="edgeStyle=orthogonalEdgeStyle;rounded=0;orthogonalLoop=1;jettySize=auto;html=1;dashed=1;dashPattern=1 2;" parent="1" source="game-server-2" target="prometheus" edge="1">
          <mxGeometry relative="1" as="geometry">
            <Array as="points">
              <mxPoint x="550" y="770" />
              <mxPoint x="550" y="770" />
            </Array>
          </mxGeometry>
        </mxCell>
        <mxCell id="conn-all-loki" value="Envía Logs" style="edgeStyle=orthogonalEdgeStyle;rounded=0;orthogonalLoop=1;jettySize=auto;html=1;dashed=1;dashPattern=1 2;" parent="1" source="api-gateway" target="loki" edge="1">
          <mxGeometry x="-0.9097" relative="1" as="geometry">
            <mxPoint x="380.0000000000002" y="270.0000000000001" as="sourcePoint" />
            <mxPoint x="1360" y="750" as="targetPoint" />
            <Array as="points">
              <mxPoint x="330" y="270" />
              <mxPoint x="300" y="270" />
              <mxPoint x="300" y="310" />
              <mxPoint x="210" y="310" />
              <mxPoint x="210" y="870" />
              <mxPoint x="280" y="870" />
              <mxPoint x="280" y="1130" />
              <mxPoint x="945" y="1130" />
            </Array>
            <mxPoint as="offset" />
          </mxGeometry>
        </mxCell>
        <mxCell id="jVAq8dYSXQLkJxcQNG5G-11" value="Text" style="edgeLabel;html=1;align=center;verticalAlign=middle;resizable=0;points=[];" vertex="1" connectable="0" parent="conn-all-loki">
          <mxGeometry x="-0.3338" y="7" relative="1" as="geometry">
            <mxPoint as="offset" />
          </mxGeometry>
        </mxCell>
        <mxCell id="conn-all-otel" value="Envía Traces" style="edgeStyle=orthogonalEdgeStyle;rounded=0;orthogonalLoop=1;jettySize=auto;html=1;dashed=1;dashPattern=1 2;exitX=1;exitY=1;exitDx=0;exitDy=0;" parent="1" source="matchmaking-service" target="opentelemetry" edge="1">
          <mxGeometry x="0.3514" relative="1" as="geometry">
            <Array as="points">
              <mxPoint x="920" y="350" />
              <mxPoint x="920" y="585" />
              <mxPoint x="945" y="585" />
            </Array>
            <mxPoint as="offset" />
          </mxGeometry>
        </mxCell>
        <mxCell id="conn-prom-grafana" value="Fuente de datos" style="edgeStyle=orthogonalEdgeStyle;rounded=0;orthogonalLoop=1;jettySize=auto;html=1;" parent="1" source="alertmanager" target="grafana" edge="1">
          <mxGeometry relative="1" as="geometry" />
        </mxCell>
        <mxCell id="conn-loki-grafana" value="Fuente de datos" style="edgeStyle=orthogonalEdgeStyle;rounded=0;orthogonalLoop=1;jettySize=auto;html=1;" parent="1" source="loki" target="grafana" edge="1">
          <mxGeometry x="0.5294" relative="1" as="geometry">
            <mxPoint as="offset" />
          </mxGeometry>
        </mxCell>
        <mxCell id="conn-prom-alert" value="Reglas de Alerta" style="edgeStyle=orthogonalEdgeStyle;rounded=0;orthogonalLoop=1;jettySize=auto;html=1;" parent="1" source="prometheus" target="alertmanager" edge="1">
          <mxGeometry relative="1" as="geometry" />
        </mxCell>
        <mxCell id="jVAq8dYSXQLkJxcQNG5G-2" value="Made by Erick Bonilla.&lt;br&gt;para optar vacante Architecth" style="text;html=1;align=center;verticalAlign=middle;whiteSpace=wrap;rounded=0;" vertex="1" parent="1">
          <mxGeometry x="30" y="1090" width="200" height="30" as="geometry" />
        </mxCell>
        <mxCell id="jVAq8dYSXQLkJxcQNG5G-4" value="&lt;h1 style=&quot;margin-top: 0px;&quot;&gt;&lt;b style=&quot;font-size: 12px; text-align: center;&quot;&gt;Infraestructura: Hetzner&lt;/b&gt;&lt;br style=&quot;font-size: 12px; font-weight: 400; text-align: center;&quot;&gt;&lt;span style=&quot;font-size: 12px; font-weight: 400; text-align: center;&quot;&gt;Orquestación: k3s&amp;nbsp;&lt;/span&gt;&lt;/h1&gt;" style="text;html=1;whiteSpace=wrap;overflow=hidden;rounded=0;" vertex="1" parent="1">
          <mxGeometry x="790" y="10" width="190" height="70" as="geometry" />
        </mxCell>
        <mxCell id="jVAq8dYSXQLkJxcQNG5G-6" value="" style="shape=image;aspect=fixed;image=data:image/png,iVBORw0KGgoAAAANSUhEUgAAAaAAAAHyCAYAAACtcBqlAABUtklEQVR42u2d25Zb1bWu9QjrCShRVSqpilz4EeoR6nK3tW/UWmxsDl4WYBsMBguDbU5GAcIZokBIIAlEHPdqK4QoAdJWCycByb0eQVS5yq477zGmVKopqfdZY4w+e9WQ/P+t/S17ZbcIVFMav+Yc3/h7oQBBEARB0HSp938qxZ/+85ZO7//eUsNfA4IgCNr/IPrPlUP4K0AQBEEQBEEQBEEQBEEQBEEQBEEQBEEQBEEQBEEQBEEQBEEQBEGQTL0jK4c2jqxU1w/f0tg4vNxeP7xSx18FgiAI0g6b6yM+snJ948hyG38pCIIgSDVsGPfw14MgCIKCgscjbEj3jlWK+EtCEARB3vINnHFv3Lq8hr8iBEEQFBJAHVEI3QoQAYIgCAoLoKYgfAAiQBAEQYEBdHi55ho2jAEiQBAEQf7qHf7ZqkfYkAaIAEEQBIXdBXkGzvrRUQNEgCAIgkIDqOMaNqSPAUSAIAiCQgLo6ErTOWwIbxwFiABBEAQF3QEt10LDZ2CACBAEQZC/esd+tioMIIAIEARBUOBdUEjwHNv1xm0AESAIgqCwAOq4hg3jOv6KEARBUEgANT3CZsIbxwAiQBAEQSEBdNtyLSR4hgaIAEEQBIUoAREkAXQMIAIEQRAUehcUEjy3WS8nBogAQRAEhQWQBREcw4b07QARIAiCoLA7oKZz2BA2d0AAESAIgqCAALIggmfojBkgAgRBEOSv3rHKqjCAACJAEARBwXdBYeFze98AESAIgqDQAOq4hg3t/ECEZFiendj685Wm/U9cHQiCoFkOIAsiOIfNpENBhNGwWekYXx/6yMr1jSMAHCAIgmY7gO4wIeATOndMeE8QYa+w4YyrA0EQNMPq3VlZ9Qgb0hSIYP87n7Ch3DuycghXCIIgaJbvgjzChvLGnTSI4Bs44944slLF1YEgCJrlALpjuSMJoPU7aRDB7uOIQujWWxq4OhAEQTMdQCtN0R3QHTQwYAPEP3R2DRABgiBo9u+Aav53PSPu0XdAK1XXsOGMqwNBEDTDSkAE97Ah3asRIMKRlUM+YTPhowARIAiCboS7IOewocyCCB5hQ3njGEAECIKg2Q6gO5c7oeHTdwaI4Bg2tAEiQBAEzfgd0EpTEkDmDogGEUyA+AXO2B3QUYAIEARBMx5AyzXv4Dk+YhpEOLZSlQSQNa4OBEHQDCsBEdzDhjQLIoQET2oya+92gAgQBEGzfRfkETaUWRDBI2woA0SAIAia/QDqhIZP4v9iQISjy23XsCENEAGCIGjGA+j4SlMSQBvHM0CEY4Hhk9wBAUSAIAia8QBaroXd+QzNgwiCALLG1YEgCJphJSCCe9iQJkGE21cOeQXObSsTU1kBIkAQBM3+XZBz2FDeqDEggkfYUN64vVLF1YEgCJrlAPqv5Y5z4JwgXGNAhGPLbdewYQwQAYIgaKYD6MRK0zlsCG+cYEAEEyCC8Lm+cRtABAiCoNkOIAsinHAPHMI0iHB7pSoJIDu1FVcHgiBohtWrVVaFAcSDCB5hQxkgAgRB0KzfBQkDiAURPMKGMkAECIKg2Q+gjnPg1CgzIMJty22fwCGG4wFEgCAImu0AWmm6h82kzR0QDyK4h82EN+4AiABBEHQgss3SG0dWquuHb2lsHDZ3E4dXrvcO/2w19wCqLddcw4YxDyI4hg1nfAogCIIOIGyGPpLyrfTjLtE/24IIsgDiQYQ7ZAEEEAGCIOggwobwT0dWWhr/TtIAYkEESQDZyavHASJAEATls9AfXqm7hg3jrlIAdbxC564x382ACHeYgHUMG2YwHkAECIKgXO5+Dv9sNTB4hu5VD/1H/gG00nQOG8IbdzEgwh3LDeewIbxxJ0AECIKgfALIhIcogG41AXRMEUS4K9g0iHC8UvUJHMr41EAQBOW12B9Z6bqGDeN67sFoQYS7RAHEgwjCAAKIAEEQlJMsSOARNhP+6VYlEEEYQCyIEBI8I5NXASJAEATls9CbOxifwFk/OmEdEOGu5Y5X6Nw9bgZEuHO57Ro2jAEiQBAE5SG7h+MRNqTVQATnsJk0CyKYAPEImwlvHAeIAEEQlE8AWRDBI2zIANIAEe5errmGzUT43GNd5kGE42Hhs2N8aiAIgvJa7I+udCUBtH5MAUQ4WVl1D5sKaRJEqK0ckgaQfY2Z/UFi0fzDJvx/bu5AD6907P8b3xAIgtT009GVVmDwJLb/e5Vg9Agb2gyI4Bs6YxNaZwVEmAwbsgWjiW8IBEF6d0DmDsY1bBjrgAj3lDt+gTPq9ZMV8s7M7uO4hg0zInzqQATHsKHcwTcEgiC9xcmCCO5hQ7pXyx9EMCHSlASQMQ8iuIbNaPD0h96dmB4QoR887v1+lPENgSBIb5GyIMKxsOAZBpAGiHByuSYKoJMZIIJj2HCenh8XlaK4bklh7AYEQdDuYn9spSsKodvzBxGunKysuocN7d59DIjgETaUpwlEMCHSC6lZ2jVABAiCFJWACK5hc5v18oh/um1ZBUTwCRvSHIhwIix4ho/hatMDImwcWW4H1iztnAcDiABBkOodUN01bBjrgAgnyx2vwBkzCyKcMIuyLISmBkRI2i4CapZS+4IAESAI0lMCIriHDWk1EEEQQMZt5g6o4RU4k0PvpgZE2Lh1eS2gYmnE+IZAEKQXQCY8JOGTBNCxymr+d0DLNVEAnWJAhFql6ho2nKfnx0WlGFKxpN12AUEQtLvY37bcDQqf23esBCI4hw1tFkQ4IRv9PVUgwtGVnqjtAiACBEGasiCBe9hM+qfblUAEj7AhfZoBEWqyAJoqEOHocju06WJggAgQBCn+SjZ3MK5hM+H+iGs9EOGUZ+ikvH6aARFqZlEODaC7kv+cHhBhr7aLvchHgAgQBGmqd2dl1SNsSKuACKcqTUkAGbeZO6CGc9hQQ+/umjIQQdB0YY1vCARB8qA5snKImuGTgAgeYUMG0J1KIIIogDJABMew4RzVdTXX1LYWkNfWgggRtl1AEDTjYbNxZKW6fviWxsbh5fZuLxi9qWwfo/mGzojvVAIRvPZ8Js2CCMLR3wcFIuyEjbmW9WSs+s9XujvX1l5v8tpaEME3eEb3AAEiQBDkGzbkCXhyU9mCBJIAUgMRPMKGNgMiCANo4259ECErbOhmg1vIvamNY+Yz4R42kwaIAEHQziMVj7Bxrtm3dzB+dzxj1gIRTpU77mGT8r19r9/HgAh3mb9dSPjszilqaFxb57AhbKt3yL9huu0i7KwXQAQIgszC+fPltdB6/aya/QREcA0bxiogwr2VpmvYMOZBBPewmZzIqgAiJD8sjuR/bTduM58Z4WFjfPMgCFKr2U9ABI+wIQNIA0Q4vVzzCBvCDIhwd6XqGjb0SPBK7ouyfZQqura3mmt7ZHJvKvnMiA4a61xbCIKmUFo1+wmIcKckhBRAhPsqq/6hM2oWRPAIG8qbp/IHEcKu565ZEOG25V7oQeMBFQkQAYIgvZr9n+5cbgUFz2Cs9U/HlUAEYQCxIIJH2JBWABHIa+vVYs2ACLeZ1/U9aDzyKBYgAgRBhcCa/aN71+wnIIJj2DDWARHuLXeCw+e+DBDhnkpbMnn1yt3lRv7X9pZGwPUc2lbvkK9r2y4CDxkPDBABgiCHmv2jYTX7CYjgHjak1UAEx7BhTC7KNkBEo7/vqeiACAHXc69rm4AIgYeMd4xvHgRBozX7R/Or2U9AhONhwTMMIC0QwT1sJp0BIgQFT6ocNfdra0EESXv10QwQQXLQ+A6ACBAE7SzKSjX79jGaKIT+SwlEuM8zdMZMgQgWIvAJG8oqIELoNR2c9dk4xoAIdyz3/BsuRs56AUSAICiwZv/o3jX7FiTwC5xRq4EIwgDaOEODCD5hw4yHqB7Itc1ssGZAhDvM6/ocLp44bAwQAYKggkPN/tGwmn17B+MaNoz1QITg8KlcX7+fARFOVtqSyatXTiqACCZAvEYmjNlW75Cvm267CEPtASJAEDRWs380v5r9BERwD5u+x0Zbq4AI91WarmHDmAYRTICIRn+fVAARjq1UpQ3W5OveaT4zd8oOG+ObB0GQWs1+AiJ4hA3lXk0BRDizXPMIG8IMiHCqUvV85Dbh3K/t7SuHgq5p6mCpfY3Ja2s+M4FnvDQhEwiCpvExXEjNfrJQrWTW7NvHaK5hQ7qmBCKc8Q2dUbMggkfYUFYBEfzGJUx443Z6b8qESi/wjNeOASJAEORQsz8aNs41+z+dWG4Fh4+x/d+rvF9hALEgwknR1FUdECF9bcMKRBvMY7h26BmvvgEiQBBUGKvZ3ytsPGr27R1M+N1PYh0Q4Uy5Exw+92eACKcqbWEA5b4o2wCRtFfb6h367jYDMnExQAQIgpKFU6lm3+7heIQNaTUQwTFsSHMgwulyQxJA66fLuS/K9hGapL3amrkDWvM/2zVqfPMgCAqv2U8tWNSmcgIieIQNHUBKIIJr2JBmQITTy2uSsd/WuV9bCyJI2qtvzwARPMKGssa1hSBoGh/D7VWzv9eCxZxut4/RfENn1AogwtnKql/gDPzArsnRDOa/k439rly3kITCtRW0V2eACMfNZ+Z4OGZvri9ABAiCxmr2fRes2/nT7T/VlluSALL/e5X36xE2pM8yIMLpci9k5Pdw9Pfp/Bfl5NqGt1db0yDCcfO6Asx+/QRABAiCCg41+3svWjyI4Bs8oyOtdUCE+8sd57AhvH42A0QIG/m9Yx0QQdBebat3yNe1IIIEsz8BEAGCoMJYzb7/L2S2Zj8BEdzDhrQKiPBApRkSPCnTi/LpSj1s5PfgDuheJRBB2GBNvm7NfGZOiAIIIAIEQXo1+wmI4BE2dAAp7Is8sFyTBVAGiCCcvJr7tbUgQmhz9cAsiBCG16tCJhAETeNjuJCa/VHTIMJdy93Q8El8txKIEBI8Z3fdO8eACJIAuk8JRAhtrh544zgDIpwwn5kAvD5lgAgQBDnU7O+1cHEgwt3LrfDwWb5u//cq79cjbGgzIMK95Z5k8qrFxHN/rzvNBaE+zoAIJ8zrnhBRjgARIAgaq9kP+JXMnW63dzCuYcNYB0R4oNxxD5tJsyDCvZW2aPLqfQogggkQQfhct8Qb+bohkMmoASJAEKRXs5+ACO5hM+GNexRBBK/QKY+bXpTvq9QlQ+9UQITjlWpIa3Xa5OtaEEFGOQJEgCAosGZ/fLOaAxE8woYaaX3lpBKI4B42lGkQ4czymnTyau7X1oIIYa3VuyMUagyIIKYcASJAEFTYo2bf7RczDSLcvdx1DRvK6yfpx10SJSCCe9iM+sG+WRAhcOLqjlVABEl56PEMEKFmPjM1CWQCEAGCoMIem9WCmn0LEriGDe2yDojgETakzy7xIELYxNX+6G8NEME2F4SEz267AQ0i3GVeV0I5AkSAIKh/B7RSF8154UAEcwcjC6CKDohwttxxDhvC6w8xIMJ9lXbYxNWBtUAEz8bqtFkQwRUy4fb/7gGIAEFQIbBm32Gz2u7hBAVParKoCojw4FLTN3TGTC/K95vAFQy9szOL8r8DqlR9G6vHq3bI17Uggj/ZOGJ88yAI2rtm3+GXM7WpbMPDJ2woq4AID5ZrwgDiQQTh5NX8r+3KIe/G6jGzIII32agPmUAQNI2P4XZq9kNnvTAggn2M5ho2lNVAhNDweahvFkQImLaatv13y/3aejdWj3qjxoAId5vPjGPY0JAJQAQIggpjm9VBs17oTeWNU+VWSPAMfUoJRPAIG9J1BkQ4U+55T1tN2WLiub/XneaCcPMgwt3Lkj0+gAgQBKVq9sNnvfAggiiAFEEE17AhzIIIZypt/2mrI3VA+YMIJkAkBaIbNQZEEEIm6/eUASJAEDTYVBY8puE2qxMQwT1sSKuACOeWml6hc27CPIggGHxnq4Lyv7aVqk9bNWX68eryWihcsmN88yAICqvZn9isZkAEj7ChrAYiuIcNZR5E8JmySjj/a7tyyLOtmhihQIMIoXCJJmQCQdA0PobLqtl3+wVNgwinKl2fwBm3HfiW93u9cs7cmbmHDWkWRJANvdMBEWTloSyIsHFPuSd5xAoQAYKg/mLislkdULOfgAiCAFIDEc7JAogFER4wi7IggFRAhJq5toLyUPPf0SDCyUpbtMcHEAGCoP6v5JV6wHCxPWv2k5HVvqFzesQ6IMK5ckcSQOvnGBDhAbMoBw68S6wBIpgAkZSHWuKNfF1fyGT87vYUQAQIggqBNfsOm9UJiOAeNqTVQATvu54R04vyWbMoBw+8szOHlEAESXnoXRkggidUMm588yAI2rtm3+GxDQsieITN0KnhbipN0efKNY+woUyDCGfNohw48G6nny7/a7tySFQeehcDItg9r5OSx6sAESAI2n1U0wvaI9ijZt8+RnMNG8p24Fve7zUBEdzDhjQJIpj/LnDY3dAqIIKkPNQeOL2bARFOlXsyyAQgAgRBBWazOoea/Y3T5ZZr2NBWAhHq4eGT+ByzKJ81i7L/sLthO7fFxHN/r9wIBccutyt3l2kQ4VSlLdjfu24/G/jmQRDkX7M/aRpEsCOr7w0Nn8QqIILdx5EE0JU6syifNa8rmju0pAMiBBaHDkzveWVBJm6PW7v45kEQlF2z7/johnzcdV9lVRhA13vn8gcRbIB4B8/DKZ/PABF8htyNzxzSABHurlRDi0N3TP4NdyCTgL294bVVgEwgCJoyDWv2A/cJrHsnGRDBJ3CIiaIaIIJ9hOYcNozpO6ClNeHIBxUQQTgg8PrmKaoRwVzbwL09TcgEgqBpfAx313IvdJ8gMXO63T5Gcw0byhogwua50iGfsKFsX2NiUbYggjCANEAEUQD1abcq+bqnmWvraI1rC0HQND6GG9TsC/YKaBDh3nLLNWxIa4EIPoFznjKzKD9Y7klmDqmACPdU2qHFof3uNmbPy15b0SNWgAgQBBUGIIJgr4Cr2U9ABEkA3acEIpwvt93DZtJXzjOL8oPmdSUzh87lDyJYki20OHTgNnttBY9Xta4tBEHTdgfkW7PvulltQYSQ4EkNdVMDEc67Bw5helF+yCzKkplD5xRAhFOVqqi77WTFHzJxvM4a1xaCoClTZs2+o6nT7XaB8QkbyiogwnmzKMsCiAYR6ktrgnlDifN+rxYiEAwHTMyCCPeK7m4BIkAQtHMXVO5Jho2xIMJ9la5r2FC2A99yX5QtiCAMoM0LDIgQPm8osW1ryP3aCoYDDlzd89oGWOPaQhA0lQGUsVktqNnfOFNuhQTPrpVABI+wufLIpFkQ4ZwJclHjtgKIMD5Cwbe77XQGiBDwWFX72kIQNGVKavbvkQwaY0AEO7JaEkD3K4IIjmFDmgMRzpnXFc0dUgARTIDI5jNlgAgBj1VTBogAQdAeNfvSzWr3sCGtAiKYAHEOG9r0onzOLMpBw+76Xq8rgQghwZM6YCq+towBIkAQtFuzLxg2xoIIHmFDWeWA5vlKVRhAPIjgN2Nownm/1wRE8C4MHTUJInDX1sMa1xaCoGm8CzpZ7kmGjbEgwv2Vrk/gTIysPqsAIlwoHZIGEAsi+M0Ymiw81QAR/AtDx9HqKvm6Z8y1FdzhAkSAIGgQQIPN6vC9AhpEuL/ccg0b0vfrbFZ7Bc6jk964wCzKdRPkgsZtFRDBjlAQzGe6ci+z58VBJs4/OAAiQBBU2KNm3+UO6FQGiOAaNrRVNqvtPo5r2DBuMAHUls0dUgIRRPOZGBBh59oG3NlqXlsIgqbtDuj08prKZvXZyqogfBKrgQiPegXOuHkQQTDyYf1hBRDhvkpVOh6Dvbahd7aK1xaCoClTAiIIN6up0+3JZnVo+AwmjKqACBcqVWEA8SCCwsgHiRIQwTd0xvDqzfsZEEH44wIgAgRB/cXzVLnnvVmdeqyzfpoBER6odF3DhrIaiCAMIBZECB35MDyPpBC4/oWh464GX9sMa1xbCIKmMoD22Kzeew+BBxEcw4a2EojgGzoXRs2CCA+bIA8a9dD3+nkFEOFec20F/W0siDB+bb1/ZABEgCCoMAARAiZcDu+A7mVAhGRktXPYTPqBsg6I8Gi57Ro2pC8yi/L4yAfvvjkFEMEEiGg8xpkKP47c8452xErXFoKgabsDsiCC1ma1a9gw7p0r5g8iPDoAES4E+GJielF+2CzKgrLT9UeUQARRd5vvtXX/gaFxbSEImjIlIEJo+GTU7Ceb1R5hs28jqy2I4B42pMnXfWRpTWPkg0QWIhB2t/Eggs/dLHGtASJAENRfPO8t9wKnXPZr9s9wIEK56xo2lO3At9wXZQsieIQNZRZE8AycyTNJCoErrM7ZuD8DRAj8YaF1bSEImsoAGmxWe064TJkGEc6WW65hw1gHRLjoHzpXLi4NvXGhRC/K502Qe4x4mKj6eVQBRDhjrm14+Fy/cobZ87LXNvCHhea1hSBoysTW7LsOGuNAhPGR1f7WAREultuuYUO7xIMI5wVdc48qgAgmQCTN5CyIEOm1hSBo2u6AziyvCWkpfrM6ZHFKTRdVAREulhvuYUP4UolclK88UqkLC0/zBxHur1SDe9sGdFuu1zZ1jQEiQBDUBxGEtBQNIhT/wydsKKs0RV8oVd3Dhjb5uo8srYkC6FElECG8ty0xDSI4XNs9rrHGtYUgaBrvgiyIIKClWBDhwXLXNWwmnIysVgIRPMKGMgciSNq2E2uACILetqS54AGHa+t7jZWuLQRBU/kYTrBZfSYDRHiw3HJdkBjrgAiX/AJn3BuXaBDBhEtP0LatAyI8YK6trL9tqq4tBEFTpqRmXxBA6/dngAjuCxJlHRDhUqktCqHHaBAhs2nBKYDyBxHY5gLHGp31s9N1bSEImro7oOU1yaRLa3JBPldZ9VyUJqwCIpgAEQYQDyLICk/zBxHOmmsrKIa1nqZrC0HQlCkBEUSTLuma/WSzWrhIqYAIl0pV97ChTb6uBRFCw2dwMFbl2gYXw/bP+Khc2zpABAiChndB5Z5k2iW7WX2u3PVdmEZHViuBCB5hQ3nzCQJEuFQphrRsj1gDRDhrrm1IKezA6w+UZdeWHUcOEAGCoMIARJBNu2wyi1TLd2Easw6I8Jhf4IybBREeLfe8W7ZT3ryoACKcNdc2oLNt10vu19ZvOixABAiCBiCCZNDYA8xmtR1Z7b8wpa0DIjxWastCiAERbNOCX8P2aNfcJSUQIaCzbdjddjbj2tbju7YQBE3bHZDLZvUeJhdku1ktW6T0QARZANEgwoVK3bdhe8wKIMLSWmBn29Aq1/ZhgAgQBBWIzeqAiZfsZrVggbJWAxF8AufxSZOve3FpTVJ2ap37tbVt3bLuNvm1ZSbFAkSAIKi/eD5Q7oWiusmZEQ5EqJe7oQuUtR34lvd7tRCBT9hQZkEEUdmpBSIUAvdBc20DO/ms1x8su1/bhx19XufaQhA0lQE0ODUfOvHyAWazul5uBS1QuwtVW+P9+oTNiJ/oe+MJBkS4WO4FlZ3uVP1ogAgPltuhnXz9Q6bMtT1vrq1j2DAGiABB0M5mdRiqm+C63Gb1+XLN51cx4Z5KAD1RaruGDenHORDBvG5g0WkSQBogws4IBY++trTXzzHX1o4jdw8bygARIAgagAg+qO5Zj81qv1/FE7b7GLkHkAkQ57AhzYEIS/XQotPBeaT8QYT60lpAX9uIyff6iLm2wnHkABEgCOpvVgtwXW6zevCoRrRI2ZaB3BflJ0pV/9AZNfm6FkQQFp6qXNuH8m+lSEAEwXXVGkcOQdBU3gXZU/PhtBS3Wb3+SLkjWajUQARhALEggjCAVECEc+baCgJo/RwDIpwvd93DhjJABAiCCntsVjuZ26xeaob9Oh5aB0QIDZ8n+2ZBhMeWep6P3Uarfh5XABHOmWsbWInUdwaI4Bw2pAEiQBCU2qwOHKW9/lAGiBD063hoPRDBMWxoMyBC1sgHl665xxRAhJ1WisD6nPU6fW2l48g3HwWIAEFQYXBqXjhKm1mkVgN/HQ+tBiI4hw0ZQDSIcGmp7ltwOmYdEEHYSsFdW8kocmuACBAETZ6af8gf3eVOt0t+JVurgQhPhgTPrsnXfXxpTVp4qnJthdU5HIggGkX+KEAECIJ2Fs+Hyj3BqGV2s9osQh3RL+VHlEAEYQCxIIIwgFRAhLq5toLqHPsolfw7Plruho4i17q2EARNYwBZECF81DJ7at6OnBb+UtYBESQB9NTS9Y3LGSCCoGtOBUSom2srqM6xMAn5Xi+UW6JpsBcAIkAQVMjYrHbHdTvMr+Sa12OZSeuACE+W2q5hQ/oyAyJwIx9cu+Y0QASqucDjkLDF6em7W8E4cjsH6QJABAiCCoPNasGo5czNasmvZLtZfUkBRHiy1HAOG9IMiPD4Uj20Z25gHRBBVp0ju7YZ85EAIkAQ1N+sFoxatmZBBGEAqYAIl0tVv8CZNPm6FkQI7ZnLaFoQX1thKwUFDCQggs/ocWpW0iWACBAEFYhT857EFAsiPFru+D6eGbUSiCAMIBZECO6Z28HCFUCE8+baBtfmJOd2aBDhQrkbMgV26AsAESAIKjCb1V7OABECHs+kFjAdEEESQJczQIQnlnqiqp8nFUCE8+baBtfm2ADKABHCpsDuFLcCRIAgaAAiCAJo/eEMEMHn8czkYqYDIjxVaruGDW0GRHBpWsgKoKeUQITw2hxrGkSw48gDJsDuePPiEkAECII8T80zJBW5SNnNasljmotKIIIJEPewIfx0Bojg2S835vxBhEeW1qSHgsn3eslc25AJsKmRFQARIAjiT817TDLlTreHP6bpL2h23EHui7IFES77hs6oyde1IIJ3v9zeTQvSaxtamZPVXJCACB5hs18t4BAETeNd0MPlnmSSKXdq3gRJR/Koxg58y/u9bjZKh3zChrJ9jYlF2YIIwqYFDRDBlrsGVeYMzIIIF5e6omF8l/K/thAETWMA2c1q0SRTBkS4tNQMflSTLGolHRDBI2wosyDCk0s9UdWPAohgx1sEVeYMA4gBER5baonmID0GEAGCoMLkZrX3EDlms3rzYrnmuzcwtkjpgAhPl9qh4ZO4wYAIrk0LzGFYDRBB1FzQNw0i7LSAh4WPbX8AiABBUH+zWnpokV6k7Ga1797AqFVABBMgogDiQIQnzaIcWvPTtw6IIDqPlXFtAwbwpd1rAESAoBtevqfmmXHLq8wvZdHIajUQIejOZ9fk6z5lFvvgmh++aUF0be3elOQ81gW6uSABEQIG8Gm3gEMQNI13QcypeY9plzSI8NhSRxhC9bzfawIieIQNZRJEaJjFXti0oAIiPFruBZzDGto+SiX/jo8tdWVjKAAiQBDUD6C2bNxyBogQsEewayUQwSNsKG80GBDhqaWeqOpHA0S4aK5twDmsYQBdygARQoJntycPIAIEQYPNatmhRR5ECNwjGFgHRGiU2iHBs2sGRHBtWmAOwm5eVgARnJsLWFKRBxEC5h/tzkECiABBUCHw1PzYngK9SKU2qwMf1aiBCLIA4kGEoIqfgTVAhIvm2vqewRqDRthrGzD/KF3aChABgqC9T827jVteZR7ViEZW25aB3BflRqkaFDy/sC4lJl/XggghFT+Xs5sWRNfWgggeYePaXGDDI2D2kXoLOARBU/kYbnBqPvTMyCN0zX4CIoQGUH8Rq+f9XhMQwSNsKLMgQkC9z+ielAKIcHGpJ8HhWRDh8aWu7+yjET8OEAGCoMKgZl9yaNH878lF6rGlpufm9NgvaCUQwSNsKLMgwmWz2HvW+4xU/VxWABEuldoSGpEFEZ5YaklawO3/Ht88CILCTs2nqCo7qIz+lVyu+WxOE9YBEX5hFmXP0BkzDSIImxY2GwoggrC5wN7Fkq/r0wJOlLRuPgUQAYKgwmCEgucp+XFTNfvJZnXABnXaKiCCCRBhALWZO6C6rGlBCUQQNheQ7/VJc23Dxk8MDRABgqD+6XbfU/Lj50mY0+1BG9Qpq4EIoeHzTN/065rFXtCywDUtiK6tBREUmgsSECFw/IRmCzgEQVMo+xhNMkTOnjlhAqgj2ivQAhE8woYyCyIIWhb6VgARHlvqSWhE+yiV/Ds+tdQVjqKo45sHQVAfRAgaIjekq2gQ4YmlpmyzWglE8AgbyhvPMiDC02axfzr8nNFmQwFEeKzUljQXWJiEfF0LIghawI0BIkAQ5Hpqnj9HYgeVkQH0ZLkm2ay2s3ZU3u+zZlH2CZ1nJ0yDCMKmBTUQQdBcYO9iydcVtoADRIAgaLBI2REKoQPkBiMUKBAhj81qLRDBPWwo0yBCwyzKkqaFX5TyBxHs2PAQEjF1jegAMtdW2AIOEAGCoD6IIDoxz9fsSzerbctA7ovys6WqR9iQJl/XgggB7Qpp535tLYggaS1gmgsSECHCFnAIgqZQ9jFa6In5rBEKJkQ6sW1WJyDCs7IAYkGEgHaFETcWc1+U7Zmq4NaCJ/i27gRECAme3QO7dXzzIAjq1+xLZvg8xoAITy01RQH0lBKIIAwgFkRomMVecM5os7GYP4jwRKktgUEsTEK+7lPmM+PR+k0YIAIEQfJT83ZQGRlAFkTwJ6TS1gMRfIPnuZQ5EEHYtLD5i1L+IEJIc8HoteFBBJ/W77Gaos2nASJAEFQYG6EQeGqe2lSe2KwO2LS2j7YUAqjhHDa0eRBBdtBVB0QQgCDWdACZayspYH0aIAIEQYUBiKBwan7wqEa0Wa0GIriHzYQ3n8sAEYQHXXO/thZEELUWZIAIggJWrRZwCIKmUPYxmmiODwciPLXUkdFSCiDC86VDPmFD+nkGRBAedL3ynAKI8ORST7IXx4IIT5vPjKQDDyACBEHJImVBBEkAPZ4BIghGVtumaZX36xM2lDkQ4ZlST3DI1byuAojwZKkd2Fiwc3CUBhEum89M0J3P0AARIAhyPDWfcaDRDiojA8iCCJKR1Zd1QAQTIu1N39D55YhpEIFrWnBFvJ9VABGymgvcfhR0mACq+5aujrU/AESAIGgAIvhXtYyYBRGEI6s1QASz0Dc8woYyDSI8YxZlCeb9nAKIYMeGPynbiyPfa8NcW+/S1VEDRIAgqL+pLJzhw51ul46stpv7CgFU9Qgb0uRi/5xZ7J/Nv2lBdm0rRY3mguQzI6kfagBEgCBoZ1F+fKkrmeHDjVBIQAQJMXVZB0QIDZ6hORAh/O5nYAUQ4amlXtAe3MDc2HD7GM2/9y7VDtEAiABBUCE5tNiSjVBgQITGUlM2MVQHRMghgKrk3/HZUs/rYOs4DPFLBRDhqVI7cA+uH0BMW7cFCUJ673a9CBABgqDAU/OjtS00iGB+PQtHVuuACL8stQODp+8XMkAEv4OtYwGkACJYYMBz781lbPhIC7hP791u+wNABAiCHEco7HGKngQRxjerA8gpFRDhl6WGc9hQfoEBEZ4zi7LsnJEOiBDQVpA2HUCLq5L6IWuACBAE9TeVBZUt3Kn5ZKESjatWAhGeL1Wdw4YxudhbEEF4zij/a7vH2PDA5oLkMxNePdS3Qgs4BEFTKPsYTWOEgn2EIySm6goBdMgrcF4gzIAIwjNGOiDCztjwwMOj3Nhw+xgttHqob4AIEAQVkiFyLVEAZYEIogBSAhF8woYOoCr5us+VeoIzRjogwtOldugj0Kyx4RYk8K4eGoEyACJAEFTY49S8w2l6O6iMDqByLWxU9XBjWwdEeKHUdg4b2g0mgNqSM0ZqIELgI9CBaRDBHr71rBwaa38AiABBUMYIBY/qFhZECBxVvbtZrQAimAARBhALIggx7/xBBJ+x4YzJ92pBBM/KoXEDRIAgqL+pHDC3Z69T8/2FKnBU9cBqIIIsgMhFeeu5pTXpOaP8ry0zNtzr4Ojk3lTymRG2P2jseUEQNIWyj9E0RiiYBawjQna1QASfwHmRMAEiXHuxUgw6W5SyCohgx4YL7kK5seH2MZpoyuxzABEgCCoktS0t0QiFywyI8ItSUxRAzyqBCD5hQ7tKvu4vSz3vs0Vpa4AIjVJbeHCUBhGeXWzJpswCRIAgqDAAEQQjFDYvcyDCYi3onMiu9UCEF70CZ9QvMSCCbVrwPVs0GoD5gwiSseF98yCCZ/PDGBkIEAGCIMEIhafTIxQoECHj1LwjvqsCIpgAEQXQiwyI8PxS3ftc0ah1QATJoVFmbLh9XBg0WTZlgAgQBPU3lQXjE7hT88lC5TumeuxRjm0ZyD2AXixVhQFEgwgvLK15nytyABxk15YYG+77Q4ADEUImyyofvoUgaAplH6MFj0/IGKFgFrBO6HmRxM8ogQj+j91G/QoDIggJuysvKoAIvyj1wg+N8mPD7WM0yZA/gAgQBPUXqctLLVFvWBaI8IwI2dUBEXzChjIHIrxQ6slCSAFE4MaGPyMbG25BAsmQvyvPA0SAIKjAnJr36g1jQATz61l4ZkQHRHhxACK8FOwGE0BtEeKtASLsNBfkPDY8h8O3ABEgCPIYoZBxpoQEEexmtXBiqBqI8JIogHgQQYJ4v6QAIiiNDbfXNni20sAAESAI6m8qy3rDeBDB+5DiqNVABFkA8SCCAuAgu7aeY8Ppczur1GcmeLaS4uFbCIKmUPYxmsYIBfsIRzIxVGOz2kIE3qHz8pg5EEEYQCogAjc23HlqawaI8Mvws0/2jhHfPAiC7KHFVnD4JKfs6U1l2/QsnBiqAyL4hM3LZABVmdftCQ65mtdWAhEk14Bp67YggeTs05UXACJAEFQYnJr3LascrW2hQQTz61k4MVQHRHip1HYOm8nwsUHRYB7vtYPQ7l3nDyIwY8M9zu/QIEL68G0Y+QcQAYIgZoSCZ38YByJIpoVa20dbuQfQy6WGc9i8skiZBhFeNItyCNq9axUQQfL359q67eNC6dkngAgQBPVBBFlvGHlqPlnsRdNCS9e3NECEV0pVj7AhTb3u1stmsVcAHCS6xo0N9zm3w4EIvqGzD3teEARNoexjNFEAMc0FZrHrSM6MqIEIHmFDmwERhAGksSgnY8NF53YYEOGFUlfSMG7vGPHNgyCoYEECUYP1szyIIDy0qAMiyAOoSr6uBRFElF3+IELS1h369+/v89AgwguLLc9xFqMB9BJABAiCChn1/Y49YpvP8CCCcPHTARFeWWyLAuhVBkTYARxCKTslECF0WN7ANIhA7Xn5GSACBEGDEQqC9mprFkSQLX5KIMJiwyNsKPMggg/SPbIPlfzzcgcRyLHhnmd36Pdqrq2w3LXXBIgAQTe8EhBB0l79LH+6PXjxGyyAtmUg/zugUtUjbEiTi70FEdzDxhlwkCjZm/IdkufQ1p2ACMJyV4AIEAT1F+VnSl1RdxgHIjxf6kgWQI1T8wmI8Kpf4EyYAxE8wobylVcVQITnSz3PIXlObd32MZqk3BUgAgRB/Ucqzy62ZOWVDIjwfKkZMCU0bR0QQR5AVTrcFnvC/aX8QQSftm6aaqNBhJcWWyLqDyACBEHJYmLr+wXllVzNfgIiyA4t6oAIry62hSHUYAJIBji8spA/iMC1dbue3XkpA0SQdesBRIAgaI8RCo59YiSIkMOpeRUQwQSIc9i8RpoGEV5erAfc9aSdP4hg27rD5hRltnUn11bYrQcQAYKgPojg2Vo9fsKeBRGEp+bVQAT3sCFNLvYvL6wFUHV7Ag4STYwNz6mt24aHN/U31jqhsecFQdAUyj5G82ysHgsgBkR4odSJ7dR8AiK85hc4E+ZAhACqLm0VEEHS1v1iBojwcqkb0Ke3G0DmjhHfPAiC7GO4lmdj9Wh1zvMMiPBiqSk5NW+bplUCVxpArzMgwquLPeH+Uv4ggmtbN49SN5lHjq2QPr1hAL0CEAGCoMLg1HxAY3LKNIhgfj2Lfn2/pAQivLbYFgUQByJIAYfXFECEvZoLAtu6g/a8RqELgAgQBI2NUAis0GFBBFkA6YEIXnc8Y/4VAyK8ahZlr8CZsA6IEDYmIrOt2z4uFEIXABEgCBqcbpeVh/IgQmBdy45ty0DuAfR6qeocNozJxf61hTVPos4JcJBIq607ARGE0AVABAiC+ovyL0tdQXko21xgH+FIBrapggivB/hXAzcZEOFV2f6SGogQfmaHbeu2j9GE0EUd3zwIggoWJJCUh7IgwkulpvAXuA6I4BM2lDkQ4bXFngxwUAARstq63RBqGkR4xXxmBHteABEgCOovJuP1/Z7NyXZQGbn4mV/PwgDSARF+tdh2DhvKTQZEkAAOyb+LEojwkndDd9o0iCDe8wKIAEFQYQAiCJqTrVkQQVbbogMimADxDp1R8yBCCNiwYw0QIautWzCOPAERhHteABEgCOqDCKLmZL5mX1rbogYiyAKIBxECwYYswEGiYVu3AJum9qYSECHCPS8IgqZQ9jGapLstE0TwHdaWOuCocWreQgSiAGoyIELTLPYhUEPKV5oKIIKkrTvjkKx9jCYMoDq+eRAEFa68sNgSVPezNfsJiODRE0ZYB0TwChvKDIjwulnsfaGGEcBBAURwbev2PCR75TXzmRGcqbryOkAECIIKHvX9/HkeHkTw6AkjrAciOIcN6Ybz63rdXSmACFRzgR+1xoMIojNVABEgCCowIxQ82wtIECHk1PyY1UCEpnfopE2DCK+bRVm2v6QAImQckhWMI0+u7WuyR44AESAI6oMIL4rKQ3kQQTYt9Lrd3M8/gEpVYQDRIELTLPaivSUlECG4o44HBhIQIeQclfKeFwRBUyj7GE0WQAyI8MpiR7IHobFZnYAIkgD6dQaIINpbUgIRXNq6Aw7J2sdokjs+e8eIbx4EQQULEkj621gQ4ZWFpnAPQgdE8AkbyhyI8Cuz2IfvLVnnDyKMt3V7U2sMiPC6+czIAgggAgRBGfX97gdJu8ziVxPuQeiACE2zKLuGDe2G8+t6WQFEcD0ky7vDBFA95DFj6r0CRIAgKLC5YMzUpnLmqXlH20dbuQeQCRDPwBk3DSI0zaIs21/KH0SgDsl6otPMe10NecyYNkAECIL6m8oK9f2Du6DgDXBrNRBBFkA8iBC6r5TxuhIle1OhFUE753Y4EOFXMpgDIAIEQf1F+aVSN7y63wTQywyI8OpiJ3gD/DVFEEESQG9kgAih+0oDq4AI6bbuEHSaAxGaC11hANXxzYMgqA8ihFb3JwHEgAivLTTDN8AT64AIPmFD+U0GRGiaxT5sX2kAOCiACOMt4L7oNLM3ZQKkFXqnl4TtrwEiQBBUGIAIL0vq++lNZfvrWbgJrgMi/Nosyq5hQ5kBEeyiKrm70liUE2AgdARFxiHZzD0vp/cLEAGCoMIARBDW97MggmxYmx6I8IZn6CR3PkPzIIJofyn/RVl0SDajBTwBEZqyvTSACBAE9TeVFer7+4/hwkord6wCIrxZqnqEDWl2UfbdTxpz3ouy8yHZDJKN2ptKPjNCmAMgAgRB/UX5lYWuKICYEQr2LIlkXo7GqfkERPAIG9IEiJC5KDveZamACOOHZP2xaRpEMHdskrC98kb+1xaCoGl8DPfKYitgZsxudc4rDIjw+kJTUlzJTSKV3wUFBs/QDIhgF+XwR3sqi/KwrTvnQ7Lsnpdr2AJEgCAoWUyo+n6fCp3XMkAEyaycXymBCG+aRVkWQjyIIHi0d+VNBRBB6ZBs8rqBQds3QAQIggqpEQqC5gIWRBBugquACCZAgoLnN0PTIMIbqUU5KNiUQAQBMs0dkk32vAKDdscAESAI6u9fCKtzWBBBGEB2Ac0/gEpVj7AhTS7KvzGLsvDxngqIIEKmM0CEN2Tv1f698O2DIMgeHO1KqnO45gJ7lkQyK0fj1HwCIniEDenfMiDCm/EtyskhWQm1xoEI5o5N+F7r+OZBENQHESTVOa8xIEJzoSmZlcNNIhUvyh5hs5V4YcRm8a2KF2Xin6WxKJOHb/3OKNEgwpvmMyN7rwARIAga1PeLqnMyQATZrBwdEOE3ZlF2DBvKLIjALcqOYaexKHsdkqX3dWgQ4Q3zuoL3uvUWQAQIggo5NBe8xoAIO6fmBdYCEVzDZsJvLVy/+tYCDyIEPNJLvbYOiCBAptnDt3bPK+Q9pgwQAYKg/v6FoDaHq+/vP4aTBZAOiLBQdQ0bzqGL8l7/TBUQIRiX5vemks9M4HvcMUAECIL6i7IFEQQzZLjmAnuWRIIBq4AIvy0d8gkbyiyIELAQp/8dVECENxZ7obj0wDSIYO7YfN7bhAEiQBCU/Hp/bbEVVJsz2N8xAcSDCAIMmJtEKn409ZZ/6IwG0EKVed2u6O5KA0QQH76lQQTzPlq+d44j/u0CQAQIgsbq+4NmyDAgQnOxJiyvVAER7D6OKIDeokEEclF+62AXZRYYcCfYOvR7XawLgxwgAgRBAxAhrDJnaBZEELYnq4AIJkCCF87fLly/+jsaRIhxUTYhuBaKS+91+FZ6JwkQAYKg/v6FsLmAa3QOHoE9sF1Acw+g3y5UXcOG87QsygmIEIpLZwAD9t/TN7jHDRABgqD+ovyrhW5wAGU0F5hA6QSNwFas709ABI+wocyBCKF3VZqLsgmTnoTQu/rWPAkiJHtensE96vyvLQRB0/gY7vXFVsjgslR1Dg0i/HqhGTQC+43sSaTiR1OegbP1u1FnggiBd1Vai/L44dsAeq3J/A1boX+/gQEiQBA0ABHCBpftzI+hQYQ3F2uScyjGOiDC7xbanovlaAD9jgER7KIceFeltSgne1OCc09bb83TIIIJy9C/38AAESAIyqe5gAURZOdQdEAEEyCei+WIWRCBW5TdF2kVEEFy7ok9fPv24mro32/HABEgCOqDCMIAYkEEYVO0GoggXDzJRdmCCOF3BCqL8rW3i0UpHMGCCMK/oQ0xfPsgCLIHR7sazQX2LImovv8N+nVlAVQ6JF08WRAhwkXZhEhPAkewIIK5Y3N+b29Tzv/aQhA0nY/hWqIBZr9mQIQ3F5qBE0gzJ5GKF+WQgEgtnptvL1TFizJlBRBhz8O3ez82bDLvteUeNoTfAYgAQVDBs76fnh/DgwiBE0gH1gMRvH+xpwLoHQZE4BZl13/WO0oggi8cMfLvyIAI5g7GOWxoA0SAICif5gISRNgZWS0YBnetWSzm/hjOggi+v9hTvvp2BoggCDaNRdn8c9cCoYjsPS8LIkgC6J2F670WQAQIuuGVgAiBjQXDg6MciOA5eZRw/iDC2wtV4a/3vemwwNdVARECoYisvalkz8sjbCgDRIAgqL8o/3qhKxlixgEDCYjgMXl0AhnWaIq2IIIwgMSLssfr5nAX1JPsTV39HQMimDs217AhDRABgqDk1/uvF1sBbQW7xNqbNIhgT9NLDkNyk0jFi/I7ZlEOeGy046vveCzKXs5/Ud5zz2vvx4RN5m/Y8gqcd8b/hjrXFoKgaQsgcwcT0FaQnh9D7l9YjFd4GFIHRHjbLMoBj41S5hflwFAbOH8Qgdubcv53pEEEG8KSANr6vc61hSBo2gJop7lAcG6HAxGkhyHtPkbui3Ka4gpaQAPoMLfX1gERtPa83MOGtMa1hSBoypSACMLmAq7RWRpAdgHNfVH+vVmUJb/e39mDDhO8bt50WAIiCIk1bm/KJ2wm/IfkP9fw7YMgyB4c7QZOz0x8hQEGbKmlZH6MxgHNZFEWBhAJIpjw0HhdceC67nmx+zXMnpe5E3QOG8q/z//aQhA0jY/h3lxshU7PHAQQDyII5sdwBaC5LMphexeJ+UV5oSvYF1FZlMk9L79/N27Pq+kcNoSv/gEgAgRBhQGI4D09czENGPAggmwOjw6I8I5ZlAP3LhK/I6TD+NfOH0Swe1OiO7MMEOEPfqEzZoAIEAQNmguEB0dZEEF4Gl8NRAjZuxg6A0QI3RfpO38QQbLnNfj3Ij8zfzTXVhJAfwSIAEFQYQAi+LUUTKDVLIggPI2vBiL83nPTfMzkomxBBOHrqoAIsrsyHkTwCBvS7wJEgCCoMBgtHTxBk28usKWWsTVFJ4uy76b5mO0dwESQWxBB4XXF13Z8z8szIK/+kdnz+oO5tq5hQzr/awtB0DQG0G8WWpIJmnY0Nf1YaqEZHD4ZBaA53AX1JI+Q2EX59ybIJY+mNECEPyy0g2m1vpvMHVDTL3BGffWPABEgCCqM1feHmQYRfjdfE1TB2F/sOiCCXZRlm+jcotwSvm7+IIIJtVBarW8GRDAhLAmgrXcBIkAQVBA2Fwz2eUgQId0UHdgYrQIi2EVZFBQMiCB53f6irAMiyEKRBxHcw4b0tRZABAi64ZU0OgcfGO2bBRGEdTBqIIJvOIyZXZQlG/N/VAIRQgNxYG5vyidsGANEgCBoACIEHBgdUm4MMJCcmo+sKTpzUXb8Vc+CCKKNeSUQ4Q977HntuV/D7Hm9a67tu96hs2uACBAEJYvJbxdaAYdF0+ZBBEFTtFZ9f7IoizbRuUXZBLlkb0RhUR7Z8wrbr2ky77UZHD7vmb/hn24GiABB0KC+P+CwaMo8iCBritYBEf5oFmXZJjoPIkheVwNEMKEmC0UGRHjPXFvHsNl6b54yQAQIghhgwNMsiCBsilYBEZQW5eDX3V2w8wcR3l1YE/z7JCY/M3bPyz1sJv2neYAIEAQNQARJAL3tWd/vVwuTP4iguSgHUmE7VgERBP8+1iyI4BE2pFsAESAIKiRDzLqiczsMMJCACII+Mo0DmlqLcgIihFNhmYu97I5vsOcVuGdjH7fRQW6urWvYUH5vvo5vHgRBNoBaonM7zGjppL5f0EemVd+vtyibII+MDrv67kJb9O/E7Xm9N9/0CpwxA0SAIKi/mGSNlnYzDSLY+n5JA7VSfb/aovyuCXLZ6+qACF6U2thdzbsZIEJoALUSA0SAICgFDAhM7V94NUUzZ1XUQARRUGSACJ5I8tiCrwMiuIYNY/Iz0zLX1j1sSANEgCCoDyIIzuxkjZaWtET3izqVQISA8yt7LsoUHeZJieUOIphF3idsqBCxYUP+HT3ChjZABAiCksdwC13BmR0eRKDq+w+4KXq4KAvCggURfJHk99wWe9G1fW++50Woje/XcHteLXNtWyHBM3Qd3zwIgtxHS/OmQQRb3y8ZgaAFIry70AsKi4HZRfm9+W4QlqxIh9kNfwkwYIEDJoCaweHzvvkbvg8QAYKgAjNa2s80iGDr+wWFmJZY03i/yaIsOcvCLcrvzbeCsOTd180fRDChJgqgFgMitMy1dQwbxgARIAgaAANBZ3V2TYIIezVFOxwEVQER7KIseCxl3FFZ7P+kACK0FtY8CbUJk58ZCyK4hw1pgAgQBPX3LwLO6qTNggiSQsw/6tT3JyCCLChkdFiGVUAET0Jt3CyI8L5/6IwYIAI047r2aXH16qfF2taf55tX/3xzZ+svRXzmycXknYWu5zkdJ2DA9qfF1hTNLsoephblJMjDzsXsudjL7oLmuxrAgAmRTnD4fJC4jm8eNKthc/XTm6+Pe+tTfObpRer3Cy3fczouo6WT+v7wu5/r9uCoyvv903xPdJq/xYAIfzKLfcC5GE06zLxmSwIMGLeYAGp6hM2Er34IEAGa3bBhjM88HUCLde9zOqPmQQTBCGdLrGm8Xy86jF6ceRDhT6K7jfxBBBNqQmCAvrYWRHAMmwl/mBggAjTLYUMZn3lKzqOlM8yCCLIRziqb1Sww4B4UHdFizzt3ECEPYIC8tvZ13cOGNEAEaIbDhvS1/8ZnfkLkaGlPbJqt75d1pOmACJYOkwWFOx3m+cgrbxAhubZCYIAFETzChvRHABGg2Q2bof+ya4AI3KL8h4WuDJterNMBNN+JrSk6ARGEAcSCCH77K86Lvejavj/fFcACLDBg/vuOd+ikDRABmuGwoQwQgQ+glgibzgIRBN1rWvX9tpVZEkAsiEBRZ154sgKI8P58KxQWSMyBCB/ON4PD5yPzN/wIm7LQ7IYNY3zmycVEOrKaGS2d1PfLijp1QITWze0AIiztZvBin20dEMEXFhgNDPrafmiurWPYMMamLDTLYUMZn3lKTqOl9yDYWBBBWNSpAiJkAQNuQdFxWuz9rQMiBIICOyav7Ufmdd3DZsRXBwaIAM1w2Ez6s5uvX2vjMz+hidHSAWOrWRAhpHNthE5TBBEEYcEu9rL9Fh0QQQILGNuwIf+OHmFDGSACNMthQxkgArco29HSgbh0FjCQgAiCos7N1nwj9w+5BREU6DAn6myPx18qIMKH810NYMAETMc1bEb8cd/mf1PHNw9hM6thQwbQZ/jMcwGkMlraNkiLmge0QIT353uSAGJBhDR19oGnlegw87otX0hgzPS1/dgsHI5hQxubsgib2Q2bq38ljc88uZhIRlZnjJbebC1UhWMBrmu8XzuXJvQx2YAO40EE2SHN/EEEE2oBkMCuP2ZAhI/na+5hQxqbsgibWQ4byvjMk/sXWaOlJ8PGebT0Zqt4SDoWwL5G/vtAGcCA2x1Lh13sZYc08wcRdoABT0ggberaXjOvGxA6I8bpcITNDIcNaYAIhIajpR3DhoIJ2FPzwrEA9i4q/wBaWAt6TJYKlMzFXmAVECEAEkj7GgMiBIfPJ31v/T+ACAib2Q0bylttgAgFZr+mGzwtNGO0tPe5m4kAUgIRhH1mFB2WLPbCAOKoM9G1/Xi+6wsJpM0BA+b/r+MaNgN3jVv28d01hfcJIWxiCpuh27veagNE4AKoJZgWyo6WtgEiax5QAhE+mO9JEGV7GJN83VDqbPfOJPcPqAmWlj8kMBIiPIiwR9hsfTJft2GT950dhLCJPWwYA0RgAkhltHQCIoTNo8k8dyNelD80d2ayu5UmE0AtQUMAS52Jrq0JNeF+DQ8iIGwQNggbHwNEIPcvpKOlWxkgQtg8mqFVQIQsOsztfEzH6XU/8jO32IsWHikw8Al9be1/h7CJU5t/Lh669udi9er/zDdM2LQRNgcSNqQBIhDyGi3t0RSdLMqB82h2A2ihmv9dwcKaKIA+ygARBMQZR51Jr60vIDB+Z4OgQdggbIT+W98AEbhFmRot7ff4jNy/8D53Mx5AHyiBCOGHMxOzIIKAOMuizkSPHC2I4Bg2eIyGsEHY5BM2lAEi8PtALeG8HBpEMAESHEAf2A1/JRDhw/leaKnm4HFZjV3sA+ppNGtqEvoMYYOwQdjsa9gwBojAPCpTGS2dgAghjQMpa7xfO5fGe48mXaj5MQ0isNTZRzLqTLoPhLBB2CBs9jtsipQBIpD7F76jpYkQYUGEsMaBoTc/UQARzJ1GaJvzwB3udQPraTKpMwhhg7CZurAhDRCBUOZoaUFTdLIoB7QNpL354UI1/wBaWAvZo0nfzXB3G9KaGtypIGwQNrMRNlf/PumtzwEicI/huqJxBRyIYM/dBA5F6weQDoggaQhI+swYEEGKPaMpAGGDsJmNsCED6O/FOr4xVAApjZZOQAQB9qwFIphw6QU3BHy8B4jgjz0PAQEEEMIGYTMbYTP05yMGiMDcAdVFowo+YECEDxeq0p40lQD62CwegrsVFkTod545hQ1oNIQNwmamw4YyQARKmaOlHfdwSBDhk+IhYUeaGogg3K+hQQQTKggbhA3CBmHDGSACByK8HzaiYK9GZ2FHmhqIIAUGyP2l/y4WETYIG4TNQQROfGFDGSACtyh/MN8NGVGQ6knjQYTQjrSPkgbq/EEEExQhs2zSdzYad2YQwgZhMzthM+Iv+t76AiACDyJ8INqvoUEEEyCSjjR7cFRnH2i+5wMI4M5mekIHYYOwiSFsGANEYO6A6kJggAcRBB1p3OMucQD9P7NIIWxmUggbhE0kYUMZIAIJIoSOlk4FCwciSM/daDzuuvbJQhVhM7MB1EHYIGwiCBvSABE4EEEIDHAggmgypz34+Un+IAI0w3fzf5lvImwQNjGEDWWACNwXNz1aOqCsk2t0lp67MW7g6swmIGAnduZ/B1SsIWwQNjGEzbUvCQNEYALoo/lWOCyQuMVs+DdkAYQq81kIG5pGU6Ac7RhqhA3CJoaw+bLY3f5HsWVDx3i118aj/qwAqgfBAns0Oif7LYH9aDvG1ZmFsCGtQzkibBA2CJvpUtLoHAgKZDU6JyBC4FhoAAIzFTaklQKog7BB2CBspkhJo3N4QedgsufCGvMYDmGDsCFtX1sFREDYIGwQNtMl50ZnNoAYEKF/7gZhc4OHDUWjXfusWM39c/xZsYawQdggbKZtH+hj88tRMNPGBg3+iggbL/RZC0RA2CBsEDZTdwdUC+hHG97ZoCMt4j2+/y4WI+1G0wEREDYIG4TNlC1S1Ghp7NnMxt3tX4prsXajqQTQX2/uIGwQNgibabsLQtjM7B1QrN1oKiDCZ/NNhA3CBprCuyCEzYz+uPj05l6M3WhqIALCBmEDQVAsATTfirMbTQFEaBdXETYIGwiC9hBFo9k9m9wfS306X4+0G00HREDYIGwgCMoOG8o2LHK/K8izJy3nczZKAdRB2CBsIAhh448+535XYL/wsXajbbYVQIT2fFMnbG5G2CBsIGhmwoayyvREEyjdGLvRrrUVQIR2sYawQdhAEMImwBrTE6/+Zb4VZzeaEoiAsEHYQBDCxh99VgERPpuvR9qNpgMiIGwQNhA0DbKHNbf+p7gWS12NGogQaTeaUgB1EDYIGwiKN3jsHY7PIc39axDQAREi7UZTARH+VmxGHzafI2wg6EYPoGi60VLWARH+enM3xm40NRABYYOwgaBYZfd5YupGSwMCKiDCZ/OtKLvR/q4EIiBsoJh+8P5vsbj1z+LatX8W69tfFRv4i0CFmLrR0lYDEeLsRtMBERA2UARhc+2rYtsETs/85/Ud2/8bf6VpuJADQGDrf/LfmB8EUDuebrRdQMCGhcpdQTTdaKOAgFIAdRA20EGHDev/zf8pB5RT2AxotBFAwJJc+QfQfCOibjTVnrQERIggbCirgAifF5sIGyiKsEk8N2L7OviLRho2tIu13P89PitWY+pGS1kHRGjf3D3osKFotGufK4AInxdrMYbN9pfFHsLmxgob0uZ18VeONmyIos6/zDfz/ndLQISIutHGamqK+QfQfCvSbrT8QQSzuMcQNuY/2zZszB3ZGh673KBhs+OvR9zGXz7SsGHcUbkriKgbLe2ttgKI0DbXJc5uNB0QAWEDxRE2E97+eg4gQsRhQ9JoKovUX82/ezTdaLu2YZH7NXPuSdv/BgGlAOogbBA2Bx02rPG5iTdsKKuACJ/NNyLqRlPtSUtAhEi70Tb/oQAifFlsImwQNlGEDeGtbwAi0BfTLPQHHTb0ozElECGibrSUdUCEvxW7MXajqYAIXxZrCBuETQxhM+JvBv4aIAL9y/Ev882IutFSTdEKIEK7eCimbrSxmpqiQgC1YuxGs3cruS9UFkRA2CBsYggb2gARyEXqU/PLMZ5utLR1QISIutHSgIAKiPD3Yj3SbjSVa4uwQdhEEjYT3v4WIAL7CC6mbrS0Nc5NJCBCLN1of0sHkBKIEGk3mtaihm80wuagw+bat4w7+Hwyd0HxdKOlrQIitOcbEXWjpQEBHRAh0m40+8gM3zyEzcyGDWGACHwAdWLpRhs5H6PTk1aNqRstZR0Q4fNiN8putC/zh0wghE0sYUMbIAK9V2BBhHi60Xb92Xwr7/eagAgRdaOlrQIifF5sRdqN1sQ3D2Ezu2FD+DuACPQi9VmxFlE3WtpdlfcbQdhQezN20zz3HxcWRIioG20HEMAjOITNTIfNbugMvf0dQAT6A2dBhIi60dJWARHaN7cPOmzIAPp7/rfoIz1pqKuBEDb7EjasASIwi3JE3WhpQMCSXLm/17/PNw46bBgaTQdEQNhACJv9DxvCWx2ACFwAdWLpRtuHnrRqBGFDWQdE+LLYRdggbBA2+xs2pAEiMHsFn803I+pGS1kJRDj4sKFrajRAhC+KLYQNwgZhs89hM/LobWiACOQiZUGEeLrR0tYBESIIG7KmRgNEMAGCsEHYIGz2PWwmvN0BiMA9llqNqRstbRUQ4W/F9kGHDUWj2bDI/dp+UVxF2CBs9j1svr6xw4Y3vm/0ohxRN1raOiBCsRFRN1raKiACwgZhg7A5iLCZNEAEPoA6sXSjqfekfV6sxtSNljJu0RE2CJsZCRvmDqiObwG1V2BBhHi60dLOH0T4R/FQTN1oI3s0bdylIGwQNjMRNt+TBohA3gG1i7WIutHS1gERYupGSwECGiAChLBB2BxI2Ex4+3uACPQXyIIIEXWjpfdkVECEz4vtiLrRdgGBf+Q/MRRC2CBs9j9sEv8w6c1O/mPpZ+QuKJ5utLRVQITPi41YutEACCBsEDazGTakf8SPTC6AOrF0o6UBAZWeNAsiIGwghA3CRjNsCG//cFMD3zYKRPjbfDOibrS0dUAEhA3CBmGDsFEMG/oOCCACDyLE042Wtg6IgLBB2CBsEDaaYTMaPEPjW8mBCBF1o6WtAiJ8UWwjbGb0s/xVsYqwQdjEEDaUN/8NEIFelCPqRhsp6vxCB0RA2MxsADURNgibGMKGNkAEelH+e7ETSzda2io9af8oVhE2M/o5/rpYQ9jcoGHzfWxhM+ntHwEiMCBCsRlRN1raLVwdyPnHxdfFVYQNwiaGsCH9L4AI3GOpWkTdaLv+UgdEgA5WvU7xP2xY6DyGQ9ggbKIIG9L49lNf2i+KqzF1o6WtASJA+x82lkbb/rrYuvZVsbvzmEzjn7f99VwHYYOwiSFstv8117N3Pdf+Vaxv/Vhcw1iG7LugKLrRJoi0L3R+KUP7GzakFe6Crn1zUxNhg7BB2EwjiHDQYUPQaLgDmpGwIWg0Cw2ogAgIG4QNwmbKQITPi839DpuB2yZ0GpZOA402u2FD+6amCoiAsEHYIGym7A7oy2JtP8PG1uLgr34jhc0kjWb3a1T2NBE2CBuEzRSCCAgbhM0+NwiogAjfzHUQNggbhM203QUhbBA2+94goAQiIGwQNqNu24Ogto0AlTjxBlAHYTOjd7jOgbO/DQIqIMK3xRrCBmGDsJm2RerLYhNhM5sa3PXE1432jRKIgLBB2EDTtw+EsJnRa5uMJYivG83u16i8X4QNwgaCoEgCiOtJi6CuRuWOz4II2mHzHcIGYQNBU65xQGD7q2JD558RaTeaBojw7U1NhA3CBoKgjLCh4AA7UE3lLuibuW6M3WgWGsj7vSYgAsIGYQNBCJsA9FmhFWL767lWnN1oCiBCx/zdETYIGwi6YcLmf/M7Z7P1z+Kawj5QPcZuNDUQAWGDsIEghE0A+vxPhWmw6Z60yOpqNK7Tdmeug7BB2EAQwsYffW6rvJdYu9E6CiBC56YmwgZhA0EIG0/0efvrOT0QIcJuNBUQoVOsIWwQNhAUteLqRktZA0T4dq4VZTeaFoiAsEHYQFDMiqkbLe2tbxRAhG+L9Ri70ba/UwIREDYIGwiKPIDa0XSjpQGBr5VAhIPuRmNoNJW72+/nOggbCILifQT3lfnCRtKNNmYdECGCsKGtACJ8f1MTYQNBkHzhtICARm3LV8VqTN1oO4DA9rdKIMJ3c90Yu9EsNJD3e736Q7GGsIEgyD9sCBrN/t95//M2vyoeiqobLe2OEogQZTeaEoiAsIEgyDdsGHdV7goi6kZLWw1EiLAbze7XqFxbhA0EQXmds7GvoxBA7Xi60dJWABH26kk7wLoajc/d9g9zHYQNBCFs8jlno7APtP21WRgi6UYbgwN0QIRYu9E0QIQfb2oibCAIYZPTOZv87wrso66YutFS52N0QITOXDfGbjQLDeT9XhMQAWEDQQibPM7Z2LECCo+lilF1o432pBVzv+PrzLWi7Eb7XgFE+Jf5vCJsIAhhk8s5m2/mVECE7W/merF0o6W91VEAETrFeozdaHa/RuWOD2EDQdOl5NR8TN1oKauACN/NtaPpRhvpSVMCESLtRlP5cWFBBIQNBE1ZCEXUjTZqhc3qkJ60/WkQ0AERYu1G+5fCtf33TU2EDQRNmba/Mr8cY+lG+0a3Jy0BESLqRtvxdkcJRPh+rhtjN5oGiGD30RA2EDR1d0Dml2M83WhDb3+jBCJE1Y020pNWzP3HxfdzrTi70fIHESAImkJd/bpYi6Ubbcw6IMJ3c71YutHSVgERfijWY+xG0wIRIAiatjsgCyLE1I2WshqIEE03WgoQ6CiBCLH0o41BAfjmQRA0CKF4utFGrAUiRNKNNmYdECGCsCFpNIVHjhAETaG2v57rxNONptuTZh91xdSNlirq1AERfpjrHnjYgEaDIIhdpL65qRlNN1oKELBjBRQeSxWj6kb7YaQnLfe7gu0f51oIGwiCotXVb4u1WLrRxqwDInTmerF0o6W99aMSiICwgSAo2jsgCyLE1I2WsgqI0JlrR9ONNmIFEMGlJw1hA0HQgYZQRN1oY0WdqwqP4eqxdKONQQE6IIJj2Gz/a66TNAogbCAI2k9tf2MWn1i60UYDKPe7ggREiKUbLQUIbP+oBCL8e67Lhc3VfxdrGtU4EARBHndA5pdvPN1o6ZoaHRDhgMOGtQqIcFMDYQNBULRKQIRIutHGrAMifD/XO/CwIawBIkAQBMV9B2RPzUfVjbZrFRDhx7l2XP1oAyuACBAEQfGHUETdaGNFnbk/NhL1pOke6mzjkwhB0A2n7e/mOtF0o6WtASL8WFyLqRstBQf08EmEIOjGuwOyIEI83WjpmhodECGCbjTQaBAEQYUBiKAZNp1g9FkHRPhxroewgSAIiuEOyIIIBx82pNVABIQNBEFQLCF08GHDFHXmvoh79aQhbCAIgnS13TGL6UGHzT71pCUgAsIGgiAoljugm5oHHzaTtmMF8n+vxSLCBoIgKBJd7ZjFNpJutDHrgAj/mushbCAIgqK4AyquRtWNlrIGiIDWZwiCoJhCKKJutNG9GdyZQBAEzbS2f5jrRNONhp40CIKgG+gO6PubmhF1o6WhgBauDgRB0Azr6g/FWizdaOOTOnF1IAiCZvkOyIII6EaDIAiCDiSEEDYQBEHQQSgBERA2EARB0P7fAdk9F4QNBEEQtM9KQASEDQRBELTvd0AmTBA2EARB0MGEEMIGgiDIWf8fRRkJUxkrOnYAAAAASUVORK5CYIKT0zmb/O8K7KOumLrRUudjdECEzlw3xm40Cw3k/V4TEAFhA0EImzzO2dixAgqPpYpRdaON9qQVc7/j68y1ouxG+14BRPiX+bwibCAIYZPLOZtv5lRAhO1v5nqxdKOlvdVRABE6xXqM3Wh2v0bljg9hA0HTpeTUfEzdaCmrgAjfzbWj6UYb6UlTAhEi7UZT+XFhQQSEDQRNWQhF1I02aoXN6pCetP1pENABEWLtRvuXwrX9901NhA0ETZm2vzK/HGPpRvtGtyctAREi6kbb8XZHCUT4fq4bYzeaBohg99EQNhA0dXdA5pdjPN1oQ29/owQiRNWNNtKTVsz9x8X3c604u9HyBxEgCJpCXf26WIulG23MOiDCd3O9WLrR0lYBEX4o1mPsRtMCESAImrY7IAsixNSNlrIaiBBNN1oKEOgogQix9KONQQH45kEQNAiheLrRRqwFIkTSjTZmHRAhgrAhaTSFR44QBE2htr+e68TTjabbk2YfdcXUjZYq6tQBEX6Y6x542IBGgyCIXaS+uakZTTdaChCwYwUUHksVo+pG+2GkJy33u4LtH+daCBsIgqLV1W+LtVi60casAyJ05nqxdKOlvfWjEoiAsIEgKNo7IAsixNSNlrIKiNCZa0fTjTZiBRDBpScNYQNB0IGGUETdaGNFnasKj+HqsXSjjUEBOiCCY9hs/2uukzQKIGwgCNpPbX9jFp9YutFGAyj3u4IERIilGy0FCGz/qAQi/Huuy4XN1X8XaxrVOBAEQR53QOaXbzzdaOmaGh0Q4YDDhrUKiHBTA2EDQVC0SkCESLrRxqwDInw/1zvwsCGsASJAEATFfQdkT81H1Y22axUQ4ce5dlz9aAMrgAgQBEHxh1BE3WhjRZ25PzYS9aTpHups45MIQdANp+3v5jrRdKOlrQEi/Fhci6kbLQUH9PBJhCDoxrsDsiBCPN1o6ZoaHRAhgm400GgQBEGFAYigGTadYPRZB0T4ca6HsIEgCIrhDsiCCAcfNqTVQASEDQRBUCwhdPBhwxR15r6Ie/WkIWwgCIJ0tQ==;" vertex="1" parent="1">
          <mxGeometry x="919.94" y="1030" width="50.12" height="60" as="geometry" />
        </mxCell>
        <mxCell id="jVAq8dYSXQLkJxcQNG5G-10" value="" style="edgeStyle=orthogonalEdgeStyle;rounded=0;orthogonalLoop=1;jettySize=auto;html=1;" edge="1" parent="1" source="prometheus" target="alertmanager">
          <mxGeometry relative="1" as="geometry">
            <mxPoint x="1100" y="940" as="sourcePoint" />
            <mxPoint x="1205" y="750" as="targetPoint" />
          </mxGeometry>
        </mxCell>
        <mxCell id="alertmanager" value="&lt;img src=&quot;https://img.icons8.com/color/48/000000/alarm.png&quot; width=&quot;40&quot; height=&quot;40&quot;&gt;&lt;br&gt;&lt;b&gt;Alertmanager&lt;/b&gt;&lt;br&gt;Alertas (SLO/SLI)" style="shape=rectangle;whiteSpace=wrap;html=1;align=center;verticalAlign=top;fillColor=#f8cecc;strokeColor=#b85450;" parent="1" vertex="1">
          <mxGeometry x="500" y="990" width="150" height="100" as="geometry" />
        </mxCell>
        <mxCell id="jVAq8dYSXQLkJxcQNG5G-14" value="&lt;img src=&quot;https://img.icons8.com/color/48/000000/redis.png&quot; width=&quot;40&quot; height=&quot;40&quot;&gt;&lt;br&gt;&lt;b&gt;Redis Cluster&lt;/b&gt;&lt;br&gt;- Presencia, Colas (Matchmaking)&lt;br&gt;- Pub/Sub (Eventos Globales)&lt;br&gt;- Leaderboards efímeros&lt;br&gt;- Tabla de Sesiones/Rutas" style="shape=cylinder3;whiteSpace=wrap;html=1;boundedLbl=1;backgroundOutline=1;size=15;" vertex="1" parent="1">
          <mxGeometry x="1040" y="105" width="210" height="210" as="geometry" />
        </mxCell>
        <mxCell id="jVAq8dYSXQLkJxcQNG5G-15" value="&lt;img src=&quot;https://img.icons8.com/color/48/000000/postgreesql.png&quot; width=&quot;40&quot; height=&quot;40&quot;&gt;&lt;br&gt;&lt;b&gt;PostgreSQL&lt;/b&gt;&lt;br&gt;- Perfiles, Transacciones&lt;br&gt;- Compras, Logros&lt;br&gt;- Leaderboards persistentes&lt;br&gt;- Replicas de lectura" style="shape=cylinder3;whiteSpace=wrap;html=1;boundedLbl=1;backgroundOutline=1;size=15;" vertex="1" parent="1">
          <mxGeometry x="1260" y="320" width="220" height="210" as="geometry" />
        </mxCell>
      </root>
    </mxGraphModel>
  </diagram>
</mxfile>
